# File created by Blade
# Date/Time:  Tue Apr 07 21:25:57 2015
# Frame Rate: 120.000 fps
#------------------------------------------------------
:FULLY-SPECIFIED
:DEGREES
461
root 23.974391 31.692668 5.325946 9.687144 -87.419740 46.292911
Spine 2.516336 -5.220548 -1.878791
Head -37.549302 2.183687 5.875711
LeftShoulder -17.967031 51.761426 6.337060
LeftArm 39.116304 18.898405 -57.108550
LeftForeArm 19.131588 -0.000000 -3.877049
LeftHand -0.839789 -0.000000 -24.248669
LeftHandThumb1 -26.253704 0.000000 33.147579
RightShoulder -5.485643 -17.554480 -16.542967
RightArm -2.946007 -28.870187 76.101103
RightForeArm -25.505394 -0.000000 -0.106229
RightHand 2.869854 -0.000000 19.150981
RightHandThumb1 -24.326973 -0.000000 -32.862282
LeftUpLeg -75.577819 -6.620054 5.704780
LeftLeg 22.855856 -0.000000 -0.000000
LeftFoot -10.029733 10.078535 -15.128512
LeftToeBase -5.760247 -0.000000 0.000000
RightUpLeg -77.121442 3.619075 -5.115683
RightLeg 22.749371 -0.000000 -0.000000
RightFoot -7.129975 -11.674116 8.421500
RightToeBase -2.258159 -0.000000 0.000000
462
root 24.038832 31.637512 5.311729 14.208431 -87.342215 42.444442
Spine 2.496700 -5.368833 -1.610997
Head -38.156283 2.309677 5.780137
LeftShoulder -19.152380 52.807975 5.603023
LeftArm 37.778209 18.745032 -58.215824
LeftForeArm 20.318491 0.000000 -4.828568
LeftHand -1.222423 -0.000000 -24.803689
LeftHandThumb1 -26.253704 0.000000 33.147579
RightShoulder -5.828288 -18.611014 -16.761131
RightArm -4.270052 -28.239225 76.720272
RightForeArm -25.569099 0.000000 -1.456606
RightHand 2.740037 -0.000000 21.310112
RightHandThumb1 -24.326973 -0.000000 -32.862282
LeftUpLeg -76.828900 -6.498785 5.907381
LeftLeg 23.744119 -0.000000 -0.000000
LeftFoot -10.138517 9.822215 -15.101744
LeftToeBase -5.979703 -0.000000 0.000000
RightUpLeg -78.225108 3.621955 -5.200874
RightLeg 23.408924 -0.000000 -0.000000
RightFoot -7.557563 -11.805547 8.714663
RightToeBase -2.124797 -0.000000 0.000000
463
root 24.101202 31.585491 5.307972 14.188223 -87.379679 43.159144
Spine 2.437186 -5.387191 -1.618443
Head -38.765066 2.415748 5.755918
LeftShoulder -20.117817 53.736446 5.142650
LeftArm 36.349169 18.559848 -59.407457
LeftForeArm 21.199012 -0.000000 -5.553338
LeftHand -1.454664 -0.000000 -25.651056
LeftHandThumb1 -26.253704 0.000000 33.147579
RightShoulder -6.202061 -19.654539 -17.031014
RightArm -5.393853 -27.356357 77.362272
RightForeArm -25.868771 -0.000000 -2.816094
RightHand 2.029758 0.000000 22.535684
RightHandThumb1 -24.326973 -0.000000 -32.862282
LeftUpLeg -78.030631 -6.363677 5.940068
LeftLeg 24.535024 -0.000000 -0.000000
LeftFoot -10.255084 9.674833 -15.099583
LeftToeBase -6.077075 -0.000000 0.000000
RightUpLeg -79.314992 3.690068 -5.608467
RightLeg 23.968074 -0.000000 -0.000000
RightFoot -7.957348 -11.967025 9.012810
RightToeBase -2.143713 -0.000000 0.000000
464
root 24.165219 31.530773 5.310000 13.708870 -87.418962 44.149109
Spine 2.591837 -5.365918 -1.643875
Head -39.377497 2.438369 5.749941
LeftShoulder -20.958857 54.578898 4.805725
LeftArm 34.960881 18.327778 -60.624179
LeftForeArm 21.723263 -0.000000 -6.103240
LeftHand -1.777806 -0.000000 -25.875731
LeftHandThumb1 -26.253704 0.000000 33.147579
RightShoulder -6.554863 -20.696721 -17.404965
RightArm -6.413581 -26.408166 77.966637
RightForeArm -25.823607 -0.000000 -3.920978
RightHand 1.638802 -0.000000 23.492948
RightHandThumb1 -24.326973 -0.000000 -32.862282
LeftUpLeg -79.033594 -6.281710 5.986191
LeftLeg 25.275343 -0.000000 -0.000000
LeftFoot -10.368790 9.637800 -15.134775
LeftToeBase -6.490805 -0.000000 0.000000
RightUpLeg -80.288328 3.723493 -5.900281
RightLeg 24.656367 -0.000000 -0.000000
RightFoot -8.300209 -12.083976 9.182010
RightToeBase -2.285482 -0.000000 0.000000
465
root 24.222133 31.468387 5.321746 10.472026 -87.378718 47.932637
Spine 2.633549 -5.494272 -1.770245
Head -39.891913 2.454925 5.781293
LeftShoulder -21.935173 55.519401 4.333276
LeftArm 33.648770 17.852162 -61.816082
LeftForeArm 22.657993 -0.000000 -6.454195
LeftHand -1.789847 0.000000 -26.029581
LeftHandThumb1 -26.253704 0.000000 33.147579
RightShoulder -6.814431 -21.772121 -17.767055
RightArm -7.399365 -25.356930 78.489628
RightForeArm -25.486731 -0.000000 -4.792982
RightHand 0.751347 -0.000000 24.136827
RightHandThumb1 -24.326973 -0.000000 -32.862282
LeftUpLeg -80.052363 -6.311891 5.910487
LeftLeg 25.982214 -0.000000 -0.000000
LeftFoot -10.540105 9.556160 -15.239160
LeftToeBase -6.753626 -0.000000 0.000000
RightUpLeg -81.409121 3.550363 -6.037986
RightLeg 25.644287 -0.000000 -0.000000
RightFoot -8.849025 -11.954817 9.354275
RightToeBase -1.913470 -0.000000 0.000000
466
root 24.280056 31.408063 5.333040 6.919494 -87.314410 51.962324
Spine 2.752352 -5.603891 -1.931898
Head -40.396578 2.453577 5.807436
LeftShoulder -22.923780 56.519691 3.952923
LeftArm 32.673430 17.414218 -62.939807
LeftForeArm 23.387765 -0.000000 -6.727660
LeftHand -1.779389 -0.000000 -26.855348
LeftHandThumb1 -26.253704 0.000000 33.147579
RightShoulder -7.027756 -22.838447 -18.177365
RightArm -8.308708 -24.163211 79.008745
RightForeArm -25.101268 -0.000000 -5.442404
RightHand 0.057540 0.000000 25.108542
RightHandThumb1 -24.326973 -0.000000 -32.862282
LeftUpLeg -80.977996 -6.364889 5.812354
LeftLeg 26.642437 -0.000000 -0.000000
LeftFoot -10.631992 9.575065 -15.158834
LeftToeBase -7.133487 -0.000000 0.000000
RightUpLeg -82.403455 3.388366 -6.228172
RightLeg 26.487869 -0.000000 -0.000000
RightFoot -9.289058 -11.971346 9.408006
RightToeBase -1.794541 -0.000000 0.000000
467
root 24.339066 31.349790 5.340688 5.150614 -87.277280 54.185779
Spine 2.851197 -5.649180 -1.996776
Head -40.878776 2.432031 5.804867
LeftShoulder -23.860084 57.603163 3.571589
LeftArm 31.897990 17.042730 -63.958426
LeftForeArm 23.804115 -0.000000 -6.851408
LeftHand -1.895814 -0.000000 -27.475474
LeftHandThumb1 -26.253704 0.000000 33.147579
RightShoulder -7.136293 -23.880783 -18.704636
RightArm -9.205581 -22.860740 79.547458
RightForeArm -24.767961 -0.000000 -5.849954
RightHand -0.458337 -0.000000 25.999132
RightHandThumb1 -24.326973 -0.000000 -32.862282
LeftUpLeg -81.885895 -6.359253 5.738371
LeftLeg 27.323474 -0.000000 -0.000000
LeftFoot -10.793012 9.494158 -15.068275
LeftToeBase -7.218640 -0.000000 0.000000
RightUpLeg -83.283575 3.314599 -6.456674
RightLeg 27.125069 -0.000000 -0.000000
RightFoot -9.681908 -12.115893 9.468409
RightToeBase -1.733389 -0.000000 0.000000
468
root 24.392214 31.291068 5.345323 4.646573 -87.228156 55.083022
Spine 3.006788 -5.690900 -1.986898
Head -41.413201 2.337549 5.777261
LeftShoulder -24.696947 58.566686 3.226429
LeftArm 31.095844 16.869846 -64.841956
LeftForeArm 23.763800 0.000000 -6.776068
LeftHand -1.995812 -0.000000 -27.827479
LeftHandThumb1 -26.253704 0.000000 33.147579
RightShoulder -7.154912 -24.886840 -19.230619
RightArm -10.107747 -21.495493 80.058755
RightForeArm -24.276414 -0.000000 -6.054923
RightHand -0.948647 -0.000000 26.626668
RightHandThumb1 -24.326973 -0.000000 -32.862282
LeftUpLeg -82.728799 -6.353868 5.704749
LeftLeg 28.010607 -0.000000 -0.000000
LeftFoot -10.880828 9.436298 -15.009754
LeftToeBase -7.759323 -0.000000 0.000000
RightUpLeg -84.060376 3.251737 -6.620409
RightLeg 27.729217 -0.000000 -0.000000
RightFoot -10.119957 -12.246790 9.490770
RightToeBase -1.594773 -0.000000 0.000000
469
root 24.440736 31.234127 5.348451 4.525852 -87.208122 55.549237
Spine 3.202082 -5.659383 -1.972146
Head -41.961566 2.222725 5.784362
LeftShoulder -25.098469 59.351051 3.242398
LeftArm 30.153554 16.561642 -65.867595
LeftForeArm 23.546198 -0.000000 -6.686073
LeftHand -2.091561 -0.000000 -28.185156
LeftHandThumb1 -26.253704 0.000000 33.147579
RightShoulder -7.161898 -25.831515 -19.749162
RightArm -10.941496 -20.144617 80.552127
RightForeArm -23.667447 -0.000000 -6.187000
RightHand -1.165205 -0.000000 27.246449
RightHandThumb1 -24.326973 -0.000000 -32.862282
LeftUpLeg -83.498490 -6.316468 5.628300
LeftLeg 28.683737 -0.000000 -0.000000
LeftFoot -10.897903 9.489431 -14.539760
LeftToeBase -8.396927 -0.000000 0.000000
RightUpLeg -84.742559 3.211157 -6.719400
RightLeg 28.257078 -0.000000 -0.000000
RightFoot -10.486236 -12.369968 9.407040
RightToeBase -1.661205 -0.000000 0.000000
470
root 24.484510 31.182791 5.353242 4.344281 -87.189710 56.066775
Spine 3.410126 -5.614396 -1.961757
Head -42.590691 2.151356 5.770046
LeftShoulder -25.828214 60.191512 2.941380
LeftArm 29.548739 15.788655 -66.898539
LeftForeArm 23.565718 -0.000000 -6.665949
LeftHand -2.086804 -0.000000 -28.265611
LeftHandThumb1 -26.253704 0.000000 33.147579
RightShoulder -7.156293 -26.772554 -20.236487
RightArm -11.621145 -18.863942 80.990690
RightForeArm -22.906233 -0.000000 -6.278130
RightHand -1.316867 0.000000 27.556595
RightHandThumb1 -24.326973 -0.000000 -32.862282
LeftUpLeg -84.194174 -6.307111 5.615798
LeftLeg 29.233926 -0.000000 -0.000000
LeftFoot -11.088457 9.479014 -14.456163
LeftToeBase -8.518031 -0.000000 0.000000
RightUpLeg -85.348458 3.178068 -6.881712
RightLeg 28.688867 -0.000000 -0.000000
RightFoot -10.914518 -12.448325 9.478408
RightToeBase -1.561862 -0.000000 0.000000
471
root 24.526047 31.133199 5.358049 4.369056 -87.161440 56.364380
Spine 3.603295 -5.581286 -1.941052
Head -43.195100 2.073235 5.753744
LeftShoulder -26.453431 60.985535 2.690336
LeftArm 29.132402 15.209632 -67.792638
LeftForeArm 23.265679 -0.000000 -6.799327
LeftHand -2.097860 -0.000000 -28.190225
LeftHandThumb1 -26.253704 0.000000 33.147579
RightShoulder -7.111211 -27.637258 -20.734362
RightArm -12.176899 -17.698168 81.436375
RightForeArm -21.960392 -0.000000 -6.466417
RightHand -1.407898 0.000000 27.881426
RightHandThumb1 -24.326973 -0.000000 -32.862282
LeftUpLeg -84.844170 -6.319158 5.625364
LeftLeg 29.712356 -0.000000 -0.000000
LeftFoot -11.314995 9.506530 -14.439063
LeftToeBase -8.139011 -0.000000 0.000000
RightUpLeg -85.919719 3.123430 -7.028427
RightLeg 29.104842 -0.000000 -0.000000
RightFoot -11.418821 -12.447254 9.697674
RightToeBase -1.298801 -0.000000 0.000000
472
root 24.553542 31.065065 5.398310 -2.603421 -86.952600 63.520555
Spine 3.873145 -5.687835 -2.247630
Head -43.742106 1.930727 5.682289
LeftShoulder -26.909644 61.623960 2.518359
LeftArm 28.722995 14.715166 -68.565736
LeftForeArm 22.908892 -0.000000 -6.934555
LeftHand -2.101821 -0.000000 -28.193228
LeftHandThumb1 -26.253704 0.000000 33.147579
RightShoulder -7.059272 -28.394941 -21.236482
RightArm -12.746168 -16.776002 81.920033
RightForeArm -20.681078 -0.000000 -6.716817
RightHand -1.401322 -0.000000 28.048986
RightHandThumb1 -24.326973 -0.000000 -32.862282
LeftUpLeg -85.289948 -6.655824 5.370552
LeftLeg 30.113418 -0.000000 -0.000000
LeftFoot -11.700715 9.784256 -14.124964
LeftToeBase -8.171857 -0.000000 0.000000
RightUpLeg -87.038090 2.470076 -6.127341
RightLeg 31.049671 -0.000000 -0.000000
RightFoot -11.765735 -11.556385 9.240501
RightToeBase -1.142721 -0.000000 0.000000
